0
SECTION
2
HEADER
9
$INSUNITS
70
4
9
$ACADVER
1
AC1014
9
$HANDSEED
5
FFFF
0
ENDSEC
0
SECTION
2
TABLES
0
TABLE
2
VPORT
5
8
100
AcDbSymbolTable
0
ENDTAB
0
TABLE
2
LTYPE
5
5
100
AcDbSymbolTable
0
LTYPE
5
14
100
AcDbSymbolTableRecord
100
AcDbLinetypeTableRecord
2
BYBLOCK
70
0
0
LTYPE
5
15
100
AcDbSymbolTableRecord
100
AcDbLinetypeTableRecord
2
BYLAYER
70
0
0
ENDTAB
0
TABLE
2
LAYER
5
2
100
AcDbSymbolTable
70
2
0
LAYER
5
50
100
AcDbSymbolTableRecord
100
AcDbLayerTableRecord
2
0
70
0
6
CONTINUOUS
0
ENDTAB
0
TABLE
2
STYLE
5
3
100
AcDbSymbolTable
70
1
0
STYLE
5
11
100
AcDbSymbolTableRecord
100
AcDbTextStyleTableRecord
2
STANDARD
70
0
0
ENDTAB
0
TABLE
2
VIEW
5
6
100
AcDbSymbolTable
70
0
0
ENDTAB
0
TABLE
2
UCS
5
7
100
AcDbSymbolTable
70
0
0
ENDTAB
0
TABLE
2
APPID
5
9
100
AcDbSymbolTable
70
2
0
APPID
5
12
100
AcDbSymbolTableRecord
100
AcDbRegAppTableRecord
2
ACAD
70
0
0
ENDTAB
0
TABLE
2
DIMSTYLE
5
A
100
AcDbSymbolTable
70
1
0
ENDTAB
0
TABLE
2
BLOCK_RECORD
5
1
100
AcDbSymbolTable
70
1
0
BLOCK_RECORD
5
1F
100
AcDbSymbolTableRecord
100
AcDbBlockTableRecord
2
*MODEL_SPACE
0
BLOCK_RECORD
5
1B
100
AcDbSymbolTableRecord
100
AcDbBlockTableRecord
2
*PAPER_SPACE
0
ENDTAB
0
ENDSEC
0
SECTION
2
BLOCKS
0
BLOCK
5
20
100
AcDbEntity
100
AcDbBlockBegin
2
*MODEL_SPACE
0
ENDBLK
5
21
100
AcDbEntity
100
AcDbBlockEnd
0
BLOCK
5
1C
100
AcDbEntity
100
AcDbBlockBegin
2
*PAPER_SPACE
0
ENDBLK
5
1D
100
AcDbEntity
100
AcDbBlockEnd
0
ENDSEC
0
SECTION
2
ENTITIES
0
LWPOLYLINE
5
100
100
AcDbEntity
8
0
100
AcDbPolyline
90
8
70
1
43
0.0
10
173.64999590516084
20
67.199998497962952
10
-173.64999590516092
20
67.199998497962952
42
0.41421356237309698
10
-183.19999590516088
20
57.649998497962933
10
-183.1999959051609
20
-61.649998408555987
42
0.41421356237309614
10
-173.64999590516092
20
-71.199998408555984
10
173.64999590516092
20
-71.199998408556013
42
0.41421356237309698
10
183.1999959051609
20
-61.649998408555966
10
183.1999959051609
20
57.649998497962955
42
0.41421356237309997
0
LWPOLYLINE
5
101
100
AcDbEntity
8
0
100
AcDbPolyline
90
4
70
1
43
0.0
10
-170.00000238418579
20
15.00000037252903
10
-150.00000238418579
20
15.00000037252903
10
-150.00000238418579
20
35.00000037252903
10
-170.00000238418579
20
35.00000037252903
0
LWPOLYLINE
5
102
100
AcDbEntity
8
0
100
AcDbPolyline
90
4
70
1
43
0.0
10
-144.0000019967556
20
31.000000610947609
10
-124.0000019967556
20
31.000000610947609
10
-124.0000019967556
20
51.000000610947609
10
-144.0000019967556
20
51.000000610947609
0
LWPOLYLINE
5
103
100
AcDbEntity
8
0
100
AcDbPolyline
90
4
70
1
43
0.0
10
-115.00000156462193
20
34.000000655651093
10
-95.000001564621925
20
34.000000655651093
10
-95.000001564621925
20
54.000000655651093
10
-115.00000156462193
20
54.000000655651093
0
LWPOLYLINE
5
104
100
AcDbEntity
8
0
100
AcDbPolyline
90
4
70
1
43
0.0
10
-89.000001177191734
20
22.000000476837158
10
-69.000001177191734
20
22.000000476837158
10
-69.000001177191734
20
42.000000476837158
10
-89.000001177191734
20
42.000000476837158
0
LWPOLYLINE
5
105
100
AcDbEntity
8
0
100
AcDbPolyline
90
8
70
1
43
0.0
10
-82.000001072883606
20
-25.000000521540642
10
-82.000001072883606
20
-45.000000521540642
10
-63.000000789761543
20
-45.000000670552254
10
-63.000000789761543
20
-58.000000715255737
10
-43.000000789761543
20
-58.000000715255737
10
-43.000000789761543
20
-38.000000715255737
10
-62.000001072883606
20
-38.000000715255737
10
-62.000001072883606
20
-25.000000521540642
0
LWPOLYLINE
5
106
100
AcDbEntity
8
0
100
AcDbPolyline
90
4
70
1
43
0.0
10
-38.000000417232513
20
-0.99999986588954926
10
-18.000000417232513
20
-0.99999986588954926
10
-18.000000417232513
20
19.000000134110451
10
-38.000000417232513
20
19.000000134110451
0
LWPOLYLINE
5
107
100
AcDbEntity
8
0
100
AcDbPolyline
90
4
70
1
43
0.0
10
-9.9999999999999982
20
-0.99999986588954926
10
9.9999999999999982
20
-0.99999986588954926
10
9.9999999999999982
20
19.000000134110451
10
-9.9999999999999982
20
19.000000134110451
0
LWPOLYLINE
5
108
100
AcDbEntity
8
0
100
AcDbPolyline
90
4
70
1
43
0.0
10
18.000000417232513
20
-0.99999986588954926
10
38.000000417232513
20
-0.99999986588954926
10
38.000000417232513
20
19.000000134110451
10
18.000000417232513
20
19.000000134110451
0
LWPOLYLINE
5
109
100
AcDbEntity
8
0
100
AcDbPolyline
90
16
70
1
43
0.0
10
43.000000789761543
20
-12.000000327825546
10
43.000000789761543
20
-32.000000327825546
10
62.000000923871994
20
-32.000000327825546
10
62.000000923871994
20
-38.000000566244125
10
43.000000789761543
20
-38.000000715255737
10
43.000000789761543
20
-58.000000715255737
10
63.000000789761543
20
-58.000000715255737
10
63.000000789761543
20
-45.000000521540642
10
82.000001072883606
20
-45.000000521540642
10
82.000001072883606
20
-32.000000327825546
10
101.00000135600567
20
-32.000000327825546
10
101.00000135600567
20
-12.000000327825546
10
82.000001072883606
20
-12.000000178813934
10
82.000001072883606
20
0.99999986588954926
10
62.000001072883606
20
0.99999986588954926
10
62.000001072883606
20
-12.000000178813934
0
LWPOLYLINE
5
110
100
AcDbEntity
8
0
100
AcDbPolyline
90
4
70
1
43
0.0
10
69.000001177191734
20
3.0000001937150955
10
89.000001177191734
20
3.0000001937150955
10
89.000001177191734
20
42.000000476837158
10
69.000001177191734
20
42.000000476837158
0
LWPOLYLINE
5
111
100
AcDbEntity
8
0
100
AcDbPolyline
90
4
70
1
43
0.0
10
95.000001564621925
20
15.00000037252903
10
115.00000156462193
20
15.00000037252903
10
115.00000156462193
20
54.000000655651093
10
95.000001564621925
20
54.000000655651093
0
LWPOLYLINE
5
112
100
AcDbEntity
8
0
100
AcDbPolyline
90
4
70
1
43
0.0
10
144.0000019967556
20
51.000000610947609
10
124.0000019967556
20
51.000000610947609
10
124.0000019967556
20
12.000000327825546
10
144.0000019967556
20
12.000000327825546
0
LWPOLYLINE
5
113
100
AcDbEntity
8
0
100
AcDbPolyline
90
4
70
1
43
0.0
10
170.00000238418579
20
35.00000037252903
10
150.00000238418579
20
35.00000037252903
10
150.00000238418579
20
-3.9999999105930328
10
170.00000238418579
20
-3.9999999105930328
0
CIRCLE
5
114
100
AcDbEntity
8
0
100
AcDbCircle
10
173.00000257790089
20
57.000000849366188
30
0
40
2.6000000000000103
210
0
220
0
230
1
0
CIRCLE
5
115
100
AcDbEntity
8
0
100
AcDbCircle
10
173.00000257790089
20
-61.000000908970833
30
0
40
2.5999999999999845
210
0
220
0
230
1
0
CIRCLE
5
116
100
AcDbEntity
8
0
100
AcDbCircle
10
0
20
-61.000000908970833
30
0
40
2.6000000000000023
210
0
220
0
230
1
0
CIRCLE
5
117
100
AcDbEntity
8
0
100
AcDbCircle
10
-173.00000257790089
20
-61.000000908970833
30
0
40
2.600000000000005
210
0
220
0
230
1
0
CIRCLE
5
118
100
AcDbEntity
8
0
100
AcDbCircle
10
-173.00000257790089
20
57.000000849366188
30
0
40
2.6000000000000156
210
0
220
0
230
1
0
CIRCLE
5
119
100
AcDbEntity
8
0
100
AcDbCircle
10
0
20
57.000000849366188
30
0
40
2.6000000000000001
210
0
220
0
230
1
0
ENDSEC
0
SECTION
2
OBJECTS
0
DICTIONARY
5
C
100
AcDbDictionary
3
ACAD_GROUP
350
D
3
ACAD_MLINESTYLE
350
17
0
DICTIONARY
5
D
100
AcDbDictionary
0
DICTIONARY
5
1A
330
C
100
AcDbDictionary
0
DICTIONARY
5
17
100
AcDbDictionary
0
ENDSEC
0
EOF
