0
SECTION
2
HEADER
9
$INSUNITS
70
4
9
$ACADVER
1
AC1014
9
$HANDSEED
5
FFFF
0
ENDSEC
0
SECTION
2
TABLES
0
TABLE
2
VPORT
5
8
100
AcDbSymbolTable
0
ENDTAB
0
TABLE
2
LTYPE
5
5
100
AcDbSymbolTable
0
LTYPE
5
14
100
AcDbSymbolTableRecord
100
AcDbLinetypeTableRecord
2
BYBLOCK
70
0
0
LTYPE
5
15
100
AcDbSymbolTableRecord
100
AcDbLinetypeTableRecord
2
BYLAYER
70
0
0
ENDTAB
0
TABLE
2
LAYER
5
2
100
AcDbSymbolTable
70
2
0
LAYER
5
50
100
AcDbSymbolTableRecord
100
AcDbLayerTableRecord
2
0
70
0
6
CONTINUOUS
0
ENDTAB
0
TABLE
2
STYLE
5
3
100
AcDbSymbolTable
70
1
0
STYLE
5
11
100
AcDbSymbolTableRecord
100
AcDbTextStyleTableRecord
2
STANDARD
70
0
0
ENDTAB
0
TABLE
2
VIEW
5
6
100
AcDbSymbolTable
70
0
0
ENDTAB
0
TABLE
2
UCS
5
7
100
AcDbSymbolTable
70
0
0
ENDTAB
0
TABLE
2
APPID
5
9
100
AcDbSymbolTable
70
2
0
APPID
5
12
100
AcDbSymbolTableRecord
100
AcDbRegAppTableRecord
2
ACAD
70
0
0
ENDTAB
0
TABLE
2
DIMSTYLE
5
A
100
AcDbSymbolTable
70
1
0
ENDTAB
0
TABLE
2
BLOCK_RECORD
5
1
100
AcDbSymbolTable
70
1
0
BLOCK_RECORD
5
1F
100
AcDbSymbolTableRecord
100
AcDbBlockTableRecord
2
*MODEL_SPACE
0
BLOCK_RECORD
5
1B
100
AcDbSymbolTableRecord
100
AcDbBlockTableRecord
2
*PAPER_SPACE
0
ENDTAB
0
ENDSEC
0
SECTION
2
BLOCKS
0
BLOCK
5
20
100
AcDbEntity
100
AcDbBlockBegin
2
*MODEL_SPACE
0
ENDBLK
5
21
100
AcDbEntity
100
AcDbBlockEnd
0
BLOCK
5
1C
100
AcDbEntity
100
AcDbBlockBegin
2
*PAPER_SPACE
0
ENDBLK
5
1D
100
AcDbEntity
100
AcDbBlockEnd
0
ENDSEC
0
SECTION
2
ENTITIES
0
LWPOLYLINE
5
100
100
AcDbEntity
8
0
100
AcDbPolyline
90
4
70
1
43
0.0
10
-97.999999999885716
20
37.000000000350582
10
-111.99999999988572
20
37.000000000396291
10
-111.99999999984
20
51.000000000396298
10
-97.999999999839986
20
51.000000000350589
0
LWPOLYLINE
5
101
100
AcDbEntity
8
0
100
AcDbPolyline
90
4
70
1
43
0.0
10
-46.000000000140417
20
-40.999999999819217
10
-46.00000000018612
20
-54.999999999819231
10
-60.000000000186127
20
-54.999999999773522
10
-60.000000000140417
20
-40.999999999773493
0
LWPOLYLINE
5
102
100
AcDbEntity
8
0
100
AcDbPolyline
90
4
70
1
43
0.0
10
7.0000000000000018
20
2.0000000000077267
10
-7.0000000000000018
20
2.000000000053439
10
-6.9999999999542872
20
16.000000000053447
10
7.0000000000457163
20
16.000000000007731
0
LWPOLYLINE
5
103
100
AcDbEntity
8
0
100
AcDbPolyline
90
4
70
1
43
0.0
10
78.999999999902073
20
-28.000000000227384
10
64.999999999902073
20
-28.000000000181675
10
64.999999999856342
20
-42.000000000181679
10
78.999999999856371
20
-42.000000000227402
0
LWPOLYLINE
5
104
100
AcDbEntity
8
0
100
AcDbPolyline
90
4
70
1
43
0.0
10
-85.99999999992491
20
25.000000000311392
10
-71.999999999924881
20
25.000000000265672
10
-71.999999999879165
20
39.000000000265686
10
-85.999999999879208
20
39.000000000311402
0
LWPOLYLINE
5
105
100
AcDbEntity
8
0
100
AcDbPolyline
90
4
70
1
43
0.0
10
-126.99999999984981
20
48.000000000445269
10
-140.99999999984982
20
48.000000000490971
10
-140.99999999989552
20
34.000000000490978
10
-126.99999999989552
20
34.000000000445269
0
LWPOLYLINE
5
106
100
AcDbEntity
8
0
100
AcDbPolyline
90
4
70
1
43
0.0
10
127.00000000008816
20
28.999999999615888
10
141.00000000008811
20
28.999999999570178
10
141.00000000004243
20
14.999999999570173
10
127.00000000004246
20
14.999999999615884
0
LWPOLYLINE
5
107
100
AcDbEntity
8
0
100
AcDbPolyline
90
4
70
1
43
0.0
10
86.000000000013088
20
5.9999999997497566
10
86.000000000058805
20
19.999999999749765
10
72.00000000005879
20
19.999999999795481
10
72.000000000013088
20
5.9999999997954712
0
LWPOLYLINE
5
108
100
AcDbEntity
8
0
100
AcDbPolyline
90
4
70
1
43
0.0
10
98.000000000114298
20
36.999999999710582
10
112.00000000011428
20
36.999999999664873
10
112.00000000016003
20
50.999999999664887
10
98.000000000159986
20
50.999999999710603
0
LWPOLYLINE
5
109
100
AcDbEntity
8
0
100
AcDbPolyline
90
4
70
1
43
0.0
10
-166.99999999994776
20
18.000000000575877
10
-152.99999999994776
20
18.000000000530164
10
-152.99999999990203
20
32.000000000530164
10
-166.99999999990209
20
32.000000000575881
0
LWPOLYLINE
5
110
100
AcDbEntity
8
0
100
AcDbPolyline
90
4
70
1
43
0.0
10
-65.000000000097927
20
-27.999999999757197
10
-79.000000000097955
20
-27.999999999711484
10
-79.000000000143658
20
-41.999999999711491
10
-65.000000000143658
20
-41.999999999757208
0
LWPOLYLINE
5
111
100
AcDbEntity
8
0
100
AcDbPolyline
90
4
70
1
43
0.0
10
45.999999999813888
20
-55.00000000011962
10
59.999999999813909
20
-55.00000000016535
10
59.999999999859597
20
-41.000000000165322
10
45.999999999859604
20
-41.000000000119613
0
LWPOLYLINE
5
112
100
AcDbEntity
8
0
100
AcDbPolyline
90
4
70
1
43
0.0
10
83.999999999898819
20
-29.00000000024372
10
97.99999999989879
20
-29.000000000289425
10
97.999999999944478
20
-15.000000000289422
10
83.999999999944521
20
-15.000000000243716
0
LWPOLYLINE
5
113
100
AcDbEntity
8
0
100
AcDbPolyline
90
4
70
1
43
0.0
10
21.000000000045731
20
15.999999999962018
10
21.000000000000011
20
1.9999999999620122
10
35.000000000000007
20
1.9999999999162976
10
35.000000000045731
20
15.999999999916305
0
LWPOLYLINE
5
114
100
AcDbEntity
8
0
100
AcDbPolyline
90
4
70
1
43
0.0
10
-20.999999999999972
20
2.0000000000991514
10
-20.999999999954255
20
16.000000000099153
10
-34.999999999954255
20
16.000000000144873
10
-34.999999999999964
20
2.0000000001448655
0
CIRCLE
5
115
100
AcDbEntity
8
0
100
AcDbCircle
10
172.99999999981321
20
57.000000000602604
30
-4.0207040780741872e-11
40
2.6000000000000134
210
-9.4225817624606235e-12
220
1.2246469529825531e-16
230
-1
0
LWPOLYLINE
5
116
100
AcDbEntity
8
0
100
AcDbPolyline
90
4
70
1
43
0.0
10
45.999999999898776
20
-29.000000000119641
10
59.999999999898783
20
-29.000000000165358
10
59.999999999944507
20
-15.000000000165345
10
45.999999999944507
20
-15.000000000119636
0
LWPOLYLINE
5
117
100
AcDbEntity
8
0
100
AcDbPolyline
90
4
70
1
43
0.0
10
64.999999999986969
20
-2.0000000001816631
10
64.999999999941238
20
-16.000000000181668
10
78.999999999941252
20
-16.000000000227381
10
78.999999999986983
20
-2.0000000002273777
0
LWPOLYLINE
5
118
100
AcDbEntity
8
0
100
AcDbPolyline
90
4
70
1
43
0.0
10
98.000000000097955
20
31.999999999710589
10
98.000000000052268
20
17.999999999710596
10
112.00000000005225
20
17.999999999664873
10
112.00000000009796
20
31.999999999664873
0
LWPOLYLINE
5
119
100
AcDbEntity
8
0
100
AcDbPolyline
90
4
70
1
43
0.0
10
152.99999999999022
20
-1.0000000004690055
10
166.99999999999019
20
-1.0000000005147225
10
167.00000000003595
20
12.999999999485286
10
153.00000000003593
20
12.999999999530996
0
CIRCLE
5
120
100
AcDbEntity
8
0
100
AcDbCircle
10
-172.99999999978712
20
-61.000000000541476
30
1.2528578187439489e-12
40
2.5999999999999868
210
-9.4225817624606235e-12
220
1.2246469529825531e-16
230
-1
0
LWPOLYLINE
5
121
100
AcDbEntity
8
0
100
AcDbPolyline
90
4
70
1
43
0.0
10
153.00000000005224
20
17.999999999531006
10
167.00000000005218
20
17.99999999948529
10
167.00000000009794
20
31.999999999485283
10
153.00000000009797
20
31.999999999531003
0
LWPOLYLINE
5
122
100
AcDbEntity
8
0
100
AcDbPolyline
90
4
70
1
43
0.0
10
127.00000000010446
20
33.999999999615888
10
141.00000000010454
20
33.999999999570171
10
141.00000000015024
20
47.999999999570178
10
127.00000000015017
20
47.999999999615888
0
LWPOLYLINE
5
123
100
AcDbEntity
8
0
100
AcDbPolyline
90
4
70
1
43
0.0
10
86.000000000075133
20
24.999999999749765
10
86.000000000120806
20
38.999999999749775
10
72.000000000120835
20
38.999999999795492
10
72.000000000075119
20
24.999999999795484
0
CIRCLE
5
124
100
AcDbEntity
8
0
100
AcDbCircle
10
173.00000000021288
20
-60.999999999397346
30
-4.0206501936082687e-11
40
2.6000000000000121
210
-9.4225817624606235e-12
220
1.2246469529825531e-16
230
-1
0
CIRCLE
5
125
100
AcDbEntity
8
0
100
AcDbCircle
10
2.1289346816592559e-10
20
-60.999999999969468
30
-1.9476822058669269e-11
40
2.6000000000000005
210
-9.4225817624606235e-12
220
1.2246469529825531e-16
230
-1
0
CIRCLE
5
126
100
AcDbEntity
8
0
100
AcDbCircle
10
-1.8673722204677301e-10
20
57.000000000030582
30
-1.9477360903328583e-11
40
2.5999999999999983
210
-9.4225817624606235e-12
220
1.2246469529825531e-16
230
-1
0
CIRCLE
5
127
100
AcDbEntity
8
0
100
AcDbCircle
10
-173.00000000018679
20
56.999999999458481
30
1.2523189740850226e-12
40
2.5999999999999974
210
-9.4225817624606235e-12
220
1.2246469529825531e-16
230
-1
0
LWPOLYLINE
5
128
100
AcDbEntity
8
0
100
AcDbPolyline
90
8
70
1
43
0.0
10
173.65000000018878
20
67.199999999463614
42
-0.41421356237304058
10
183.20000000015762
20
57.649999999434328
10
183.19999999981462
20
-61.650000000538476
42
-0.41421356237319035
10
173.64999999978409
20
-71.200000000511025
10
-173.65000000024011
20
-71.199999999401797
42
-0.41421356237305801
10
-183.20000000020963
20
-61.649999999372397
10
-183.19999999984262
20
57.650000000626981
42
-0.41421356237315143
10
-173.6499999998114
20
67.200000000597569
0
ENDSEC
0
SECTION
2
OBJECTS
0
DICTIONARY
5
C
100
AcDbDictionary
3
ACAD_GROUP
350
D
3
ACAD_MLINESTYLE
350
17
0
DICTIONARY
5
D
100
AcDbDictionary
0
DICTIONARY
5
1A
330
C
100
AcDbDictionary
0
DICTIONARY
5
17
100
AcDbDictionary
0
ENDSEC
0
EOF
