0
SECTION
2
HEADER
9
$INSUNITS
70
4
9
$ACADVER
1
AC1014
9
$HANDSEED
5
FFFF
0
ENDSEC
0
SECTION
2
TABLES
0
TABLE
2
VPORT
5
8
100
AcDbSymbolTable
0
ENDTAB
0
TABLE
2
LTYPE
5
5
100
AcDbSymbolTable
0
LTYPE
5
14
100
AcDbSymbolTableRecord
100
AcDbLinetypeTableRecord
2
BYBLOCK
70
0
0
LTYPE
5
15
100
AcDbSymbolTableRecord
100
AcDbLinetypeTableRecord
2
BYLAYER
70
0
0
ENDTAB
0
TABLE
2
LAYER
5
2
100
AcDbSymbolTable
70
2
0
LAYER
5
50
100
AcDbSymbolTableRecord
100
AcDbLayerTableRecord
2
0
70
0
6
CONTINUOUS
0
ENDTAB
0
TABLE
2
STYLE
5
3
100
AcDbSymbolTable
70
1
0
STYLE
5
11
100
AcDbSymbolTableRecord
100
AcDbTextStyleTableRecord
2
STANDARD
70
0
0
ENDTAB
0
TABLE
2
VIEW
5
6
100
AcDbSymbolTable
70
0
0
ENDTAB
0
TABLE
2
UCS
5
7
100
AcDbSymbolTable
70
0
0
ENDTAB
0
TABLE
2
APPID
5
9
100
AcDbSymbolTable
70
2
0
APPID
5
12
100
AcDbSymbolTableRecord
100
AcDbRegAppTableRecord
2
ACAD
70
0
0
ENDTAB
0
TABLE
2
DIMSTYLE
5
A
100
AcDbSymbolTable
70
1
0
ENDTAB
0
TABLE
2
BLOCK_RECORD
5
1
100
AcDbSymbolTable
70
1
0
BLOCK_RECORD
5
1F
100
AcDbSymbolTableRecord
100
AcDbBlockTableRecord
2
*MODEL_SPACE
0
BLOCK_RECORD
5
1B
100
AcDbSymbolTableRecord
100
AcDbBlockTableRecord
2
*PAPER_SPACE
0
ENDTAB
0
ENDSEC
0
SECTION
2
BLOCKS
0
BLOCK
5
20
100
AcDbEntity
100
AcDbBlockBegin
2
*MODEL_SPACE
0
ENDBLK
5
21
100
AcDbEntity
100
AcDbBlockEnd
0
BLOCK
5
1C
100
AcDbEntity
100
AcDbBlockBegin
2
*PAPER_SPACE
0
ENDBLK
5
1D
100
AcDbEntity
100
AcDbBlockEnd
0
ENDSEC
0
SECTION
2
ENTITIES
0
LWPOLYLINE
5
100
100
AcDbEntity
8
0
100
AcDbPolyline
90
102
70
1
43
0.0
10
173.65000000018878
20
67.199999999463614
42
-0.41421356237304058
10
183.20000000015762
20
57.649999999434328
10
183.19999999981462
20
-61.650000000538476
42
-0.41421356237319035
10
173.64999999978409
20
-71.200000000511025
10
-173.65000000024011
20
-71.199999999401797
42
-0.41421356237305801
10
-183.20000000020963
20
-61.649999999372397
10
-183.19999999984262
20
57.650000000626981
42
-0.41421356237315143
10
-173.6499999998114
20
67.200000000597569
10
-57.499999999779959
20
67.200000000218338
10
-57.499999999784208
20
65.900000000218341
42
0.24860122704064511
10
-60.599998645484447
20
62.199998609721661
10
-60.999998636543751
20
62.199998609721661
10
-60.999998636543751
20
52.599998824298382
10
-56.499998737126589
20
52.599998824298382
10
-56.499999706186195
20
46.000000655651064
10
-58.499999999840703
20
44.000000655651093
10
-70.000001043081284
20
44.000000655651093
10
-88.000001311302185
20
44.000000655651093
10
-96.000001430511475
20
56.000000834465027
10
-114.00000169873238
20
56.000000834465027
10
-125.00000186264515
20
53.000000789761543
10
-143.00000213086605
20
53.000000789761543
10
-151.00000225007534
20
37.000000551342964
10
-169.00000251829624
20
37.000000551342964
10
-169.00000251829624
20
13.000000193715096
10
-151.00000225007534
20
13.000000193715096
10
-143.00000213086605
20
29.000000432133675
10
-125.00000186264515
20
29.000000432133675
10
-114.00000169873238
20
32.000000476837158
10
-96.000001430511475
20
32.000000476837158
10
-88.000001311302185
20
20.000000298023224
10
-74.000001072883606
20
20.000000298023224
10
-72.000001072883606
20
18.000000298023224
10
-72.000001072883606
20
-15.000000223517418
10
-54.000000685453415
20
-15.000000223517418
10
-46.000000685453415
20
-23.000000223517418
10
-46.000000685453415
20
-34.000000536441803
10
-48.000000685453415
20
-36.000000536441803
10
-63.000000938773155
20
-36.000000536441803
10
-63.000000938773155
20
-23.000000342726707
10
-81.000001206994057
20
-23.000000342726707
10
-81.000001206994057
20
-47.000000700354576
10
-63.000000938773155
20
-47.000000700354576
10
-62.000000923871994
20
-47.000000700354576
10
-62.000000923871994
20
-60.000000894069672
10
-44.000000655651093
20
-60.000000894069672
10
-44.000000655651093
20
-53.000000759959221
10
-42.000000655651093
20
-51.000000759959221
10
36.000000655651093
20
-51.000000759959221
10
36.000000655651093
20
-17.000000223517418
10
38.000000655651093
20
-15.000000223517418
10
42.000000655651093
20
-15.000000223517418
10
44.000000655651093
20
-17.000000223517418
10
44.000000655651093
20
-60.000000894069672
10
62.000000923871994
20
-60.000000894069672
10
62.000000923871994
20
-47.000000700354576
10
63.000000938773155
20
-47.000000700354576
10
81.000001206994057
20
-47.000000700354576
10
81.000001206994057
20
-34.000000506639481
10
82.000001221895218
20
-34.000000506639481
10
100.00000149011612
20
-34.000000506639481
10
100.00000149011612
20
-10.000000149011612
10
82.000001221895218
20
-10.000000149011612
10
81.000001206994057
20
-10.000000149011612
10
81.000001206994057
20
-0.99999998509883892
10
83.000001206994057
20
1.0000000149011612
10
88.000001311302185
20
1.0000000149011612
10
96.000001430511475
20
13.000000193715096
10
114.00000169873238
20
13.000000193715096
10
125.00000186264515
20
10.000000149011612
10
143.00000213086605
20
10.000000149011612
10
151.00000225007534
20
-6.0000000894069672
10
169.00000251829624
20
-6.0000000894069672
10
169.00000251829624
20
37.000000551342964
10
151.00000225007534
20
37.000000551342964
10
143.00000213086605
20
53.000000789761543
10
125.00000186264515
20
53.000000789761543
10
114.00000169873238
20
56.000000834465027
10
96.000001430511475
20
56.000000834465027
10
88.000001311302185
20
44.000000655651093
10
70.000001043081284
20
44.000000655651093
10
37.000000551342964
20
21.000000312924385
10
19.000000283122063
20
21.000000312924385
10
19.000000283122063
20
11.000000171363354
10
17.00000024586916
20
9.0000001341104507
10
11.000000134110451
20
9.0000001341104507
10
9.0000001341104507
20
11.000000134110451
10
9.0000001341104507
20
21.000000312924385
10
-9.0000001341104507
20
21.000000312924385
10
-9.0000001341104507
20
11.000000134110451
10
-11.000000134110451
20
9.0000001341104507
10
-17.000000283122063
20
9.0000001341104507
10
-19.000000283122063
20
11.000000134110451
10
-19.000000283122063
20
21.000000312924385
10
-42.499999999840689
20
21.000000312924385
10
-44.499999999840689
20
23.000000312924385
10
-44.500000663101673
20
52.599998824298382
10
-39.999999105930328
20
52.599998824298382
10
-39.999999105930328
20
62.199998609721661
10
-40.399999096989632
20
62.199998609721661
42
0.2486011523875227
10
-43.499999999784208
20
65.900000000172611
10
-43.499999999779959
20
67.200000000172622
0
CIRCLE
5
101
100
AcDbEntity
8
0
100
AcDbCircle
10
-172.99999999981321
20
57.000000000602604
30
1.6703206661723015e-09
40
3.25
210
0
220
0
230
1
0
CIRCLE
5
102
100
AcDbEntity
8
0
100
AcDbCircle
10
1.8673722204695659e-10
20
57.000000000030582
30
1.948434138920104e-11
40
3.25
210
0
220
0
230
1
0
CIRCLE
5
103
100
AcDbEntity
8
0
100
AcDbCircle
10
173.00000000018679
20
56.999999999458481
30
-1.6313519833939008e-09
40
3.25
210
0
220
0
230
1
0
CIRCLE
5
104
100
AcDbEntity
8
0
100
AcDbCircle
10
172.99999999978712
20
-61.000000000541476
30
-1.6313669730688391e-09
40
3.25
210
0
220
0
230
1
0
CIRCLE
5
105
100
AcDbEntity
8
0
100
AcDbCircle
10
-2.1289346816574214e-10
20
-60.999999999969468
30
1.9469351714262082e-11
40
3.25
210
0
220
0
230
1
0
CIRCLE
5
106
100
AcDbEntity
8
0
100
AcDbCircle
10
-173.00000000021288
20
-60.999999999397346
30
1.6703056764973632e-09
40
3.25
210
0
220
0
230
1
0
ENDSEC
0
SECTION
2
OBJECTS
0
DICTIONARY
5
C
100
AcDbDictionary
3
ACAD_GROUP
350
D
3
ACAD_MLINESTYLE
350
17
0
DICTIONARY
5
D
100
AcDbDictionary
0
DICTIONARY
5
1A
330
C
100
AcDbDictionary
0
DICTIONARY
5
17
100
AcDbDictionary
0
ENDSEC
0
EOF
